<?xml version="1.0" encoding="UTF-8"?><svg id="Layer_2" xmlns="http://www.w3.org/2000/svg" viewBox="0 0 400 400"><defs><style>.cls-1{fill:#1d1d1b;}</style></defs><g id="guide"><path d="m200,30c45.41,0,88.1,17.68,120.21,49.79,32.11,32.11,49.79,74.8,49.79,120.21s-17.68,88.1-49.79,120.21-74.8,49.79-120.21,49.79-88.1-17.68-120.21-49.79-49.79-74.8-49.79-120.21,17.68-88.1,49.79-120.21c32.11-32.11,74.8-49.79,120.21-49.79m0-30C89.54,0,0,89.54,0,200s89.54,200,200,200,200-89.54,200-200S310.46,0,200,0h0Z"/><path class="cls-1" d="m174.66,242.6v-3.52c.07-12.09,1.16-21.73,3.26-28.92,2.11-7.19,5.2-12.99,9.28-17.41,4.08-4.42,8.98-8.43,14.72-12.02,4.28-2.76,8.12-5.63,11.51-8.6,3.38-2.97,6.08-6.27,8.09-9.9,2-3.63,3.01-7.69,3.01-12.18,0-4.77-1.14-8.95-3.42-12.54-2.28-3.59-5.34-6.36-9.17-8.29-3.84-1.93-8.07-2.9-12.7-2.9s-8.74.98-12.75,2.95c-4.01,1.97-7.29,4.87-9.85,8.71-2.56,3.83-3.94,8.59-4.15,14.25h-42.29c.34-13.82,3.66-25.24,9.95-34.26,6.29-9.02,14.61-15.75,24.98-20.21,10.36-4.46,21.8-6.69,34.31-6.69,13.75,0,25.91,2.26,36.48,6.79,10.57,4.53,18.86,11.07,24.88,19.64,6.01,8.57,9.02,18.9,9.02,30.99,0,8.09-1.33,15.25-3.99,21.51-2.66,6.25-6.37,11.78-11.14,16.58-4.77,4.8-10.4,9.14-16.89,13.01-5.46,3.25-9.93,6.63-13.42,10.16-3.49,3.52-6.08,7.6-7.77,12.23-1.69,4.63-2.58,10.33-2.64,17.1v3.52h-39.28Zm20.52,66.34c-6.91,0-12.8-2.44-17.67-7.31-4.87-4.87-7.27-10.73-7.2-17.57-.07-6.77,2.33-12.58,7.2-17.41,4.87-4.84,10.76-7.26,17.67-7.26s12.33,2.42,17.31,7.26c4.98,4.84,7.5,10.64,7.57,17.41-.07,4.56-1.26,8.72-3.58,12.49-2.32,3.77-5.34,6.77-9.07,9.02s-7.81,3.37-12.23,3.37Z"/></g></svg>