<?xml version="1.0" encoding="UTF-8"?><svg id="Layer_2" xmlns="http://www.w3.org/2000/svg" viewBox="0 0 397.68 397.68"><defs><style>.cls-1{fill:#1d1d1b;}</style></defs><g id="smallScreen"><path class="cls-1" d="m285.13,397.68v-102.55c0-5.51,4.49-10,10-10h102.55v-30h-102.55c-22.09,0-40,17.91-40,40v102.55h30Z"/><path class="cls-1" d="m285.13,102.55V0h-30v102.55c0,22.09,17.91,40,40,40h102.55v-30h-102.55c-5.51,0-10-4.49-10-10Z"/><path class="cls-1" d="m112.55,0v102.55c0,5.51-4.49,10-10,10H0v30h102.55c22.09,0,40-17.91,40-40V0h-30Z"/><path class="cls-1" d="m112.55,295.13v102.55h30v-102.55c0-22.09-17.91-40-40-40H0v30h102.55c5.51,0,10,4.49,10,10Z"/></g></svg>