<?xml version="1.0" encoding="UTF-8"?><svg id="Layer_2" xmlns="http://www.w3.org/2000/svg" viewBox="0 0 400 400"><defs><style>.cls-1,.cls-2{stroke-width:0px;}.cls-2{fill:#1d1d1b;}</style></defs><g id="info"><path class="cls-1" d="M200,30c45.41,0,88.1,17.68,120.21,49.79,32.11,32.11,49.79,74.8,49.79,120.21s-17.68,88.1-49.79,120.21-74.8,49.79-120.21,49.79-88.1-17.68-120.21-49.79-49.79-74.8-49.79-120.21,17.68-88.1,49.79-120.21c32.11-32.11,74.8-49.79,120.21-49.79M200,0C89.54,0,0,89.54,0,200s89.54,200,200,200,200-89.54,200-200S310.46,0,200,0h0Z"/><path class="cls-2" d="M200,129.84c-6.82,0-12.65-2.26-17.5-6.78-4.85-4.52-7.27-9.98-7.27-16.37s2.44-11.86,7.32-16.42c4.88-4.56,10.7-6.84,17.45-6.84s12.65,2.26,17.5,6.78c4.84,4.52,7.27,9.98,7.27,16.37s-2.43,11.86-7.27,16.42c-4.84,4.56-10.68,6.84-17.5,6.84ZM176.95,316.57v-165.4h45.87v165.4h-45.87Z"/></g></svg>