<?xml version="1.0" encoding="UTF-8"?><svg id="Layer_2" xmlns="http://www.w3.org/2000/svg" viewBox="0 0 400 400"><defs><style>.cls-1{fill:#1d1d1b;}</style></defs><g id="virtualExpoIcon_final"><path class="cls-1" d="m400,247.42v152.58h-152.58l-.22-44.94h74.83l-102.02-102.02,33.03-33.03,102.02,102.02-.23-74.61h45.17Z"/><path class="cls-1" d="m247.42,0h152.58v152.58l-44.94.22v-74.83l-102.02,102.02-33.03-33.03,102.02-102.02-74.61.23V0Z"/><path class="cls-1" d="m0,152.58V0h152.58l.22,44.94h-74.83l102.02,102.02-33.03,33.03L44.94,77.98l.23,74.61H0Z"/><path class="cls-1" d="m152.58,400H0v-152.58l44.94-.22v74.83l102.02-102.02,33.03,33.03-102.02,102.02,74.61-.23v45.17Z"/></g></svg>