<?xml version="1.0" encoding="UTF-8"?><svg id="Layer_2" xmlns="http://www.w3.org/2000/svg" viewBox="0 0 400 399.42"><defs><style>.cls-1{fill:#1d1d1b;}</style></defs><g id="exit"><path class="cls-1" d="m88.72,288.42L0,199.71l88.72-88.72,20.42,20.24-53.6,53.6h144.46s0,29.75,0,29.75H55.54s53.6,53.51,53.6,53.51l-20.42,20.33Z"/><path class="cls-1" d="m360,0h-219.43c-22.09,0-40,17.91-40,40v50.3h30v-50.3c0-5.51,4.49-10,10-10h219.43c5.51,0,10,4.49,10,10v319.42c0,5.51-4.49,10-10,10h-219.43c-5.51,0-10-4.49-10-10v-50.32h-30v50.32c0,22.09,17.91,40,40,40h219.43c22.09,0,40-17.91,40-40V40c0-22.09-17.91-40-40-40Z"/></g></svg>