<?xml version="1.0" encoding="UTF-8"?><svg id="Layer_2" xmlns="http://www.w3.org/2000/svg" viewBox="0 0 397.68 397.68"><defs><style>.cls-1{fill:#1d1d1b;}</style></defs><g id="fullscreen"><path class="cls-1" d="m367.68,255.13v102.55c0,5.51-4.49,10-10,10h-102.55v30h102.55c22.09,0,40-17.91,40-40v-102.55h-30Z"/><path class="cls-1" d="m367.68,40v102.55h30V40c0-22.09-17.91-40-40-40h-102.55v30h102.55c5.51,0,10,4.49,10,10Z"/><path class="cls-1" d="m30,142.55V40c0-5.51,4.49-10,10-10h102.55V0H40C17.91,0,0,17.91,0,40v102.55h30Z"/><path class="cls-1" d="m30,357.68v-102.55H0v102.55c0,22.09,17.91,40,40,40h102.55v-30H40c-5.51,0-10-4.49-10-10Z"/></g></svg>