<?xml version="1.0" encoding="UTF-8"?><svg id="Layer_2" xmlns="http://www.w3.org/2000/svg" viewBox="0 0 500 500"><defs><style>.cls-1{fill:#1d1d1b;}</style></defs><g id="virtualExpo_icon_var2"><path class="cls-1" d="m460,0H40C17.91,0,0,17.91,0,40v420c0,22.09,17.91,40,40,40h420c22.09,0,40-17.91,40-40V40c0-22.09-17.91-40-40-40ZM202.58,402.67v45.17H50v-152.58l44.94-.22v74.83l102.02-102.02,33.03,33.03-102.02,102.02,74.61-.23Zm-5.62-174.83l-102.02-102.02.23,74.61h-45.17V47.84h152.58l.22,44.94h-74.83l102.02,102.02-33.03,33.03Zm253.03,220h-152.58l-.22-44.94h74.83l-102.02-102.02,33.03-33.03,102.02,102.02-.23-74.61h45.17v152.58Zm0-247.42l-44.94.22v-74.83l-102.02,102.02-33.03-33.03,102.02-102.02-74.61.23v-45.17h152.58v152.58Z"/></g></svg>