<?xml version="1.0" encoding="UTF-8"?><svg id="Layer_2" xmlns="http://www.w3.org/2000/svg" viewBox="0 0 399.45 399.49"><g id="profil_icon"><path d="m199.83,399.49C89.8,399.72.13,310.39,0,200.42-.13,90.19,88.85.18,198.12,0c111.97-.18,201.22,88.57,201.33,200.21.11,109.86-89.23,199.05-199.62,199.28Zm-.45-21.31c47.45-.68,88.46-16.85,123.13-49.01,1.96-1.82,2.5-3.23,1.32-5.82-7.92-17.4-18.71-32.72-32.93-45.49-68.95-61.93-176.53-39.4-214.99,44.87-1.43,3.14-.83,4.71,1.5,6.86,34.51,31.89,75.32,47.82,121.96,48.59Zm71.69-228.2c.49-38.43-31.46-70.96-70.13-71.4-39.66-.46-71.92,30.79-72.56,70.27-.63,38.92,31.05,71.77,69.7,72.27,40.4.52,72.47-30.74,72.99-71.14Z"/></g></svg>