<?xml version="1.0" encoding="UTF-8"?><svg id="Layer_2" xmlns="http://www.w3.org/2000/svg" viewBox="0 0 1110.83 195.03"><defs><style>.cls-1{fill:#1d1d1b;}</style></defs><g id="virtualExpoLogo_final"><path class="cls-1" d="m111.65,45.03l-37.93,109.09h-35.79L0,45.03h33.38l21.88,77.2h1.14l21.88-77.2h33.38Z"/><path class="cls-1" d="m142.33,31.32c-4.64,0-8.61-1.53-11.9-4.58-3.29-3.05-4.94-6.73-4.94-11.04s1.66-8,4.97-11.08c3.31-3.08,7.27-4.62,11.86-4.62s8.59,1.54,11.86,4.62c3.27,3.08,4.9,6.77,4.9,11.08s-1.63,7.99-4.9,11.04c-3.27,3.05-7.22,4.58-11.86,4.58Zm-15.84,122.8V45.03h31.53v109.09h-31.53Z"/><path class="cls-1" d="m181.6,154.12V45.03h30.61v19.32h1.14c1.99-6.91,5.3-12.11,9.94-15.59s9.99-5.22,16.05-5.22c1.51,0,3.15.1,4.9.28,1.75.19,3.29.45,4.62.78v27.84c-1.47-.47-3.48-.88-6.04-1.21-2.56-.33-4.88-.5-6.96-.5-4.36,0-8.24.95-11.65,2.84-3.41,1.89-6.11,4.52-8.1,7.88-1.99,3.36-2.98,7.27-2.98,11.72v60.94h-31.53Z"/><path class="cls-1" d="m328.54,45.03v23.58h-66.69v-23.58h66.69Zm-51.92-26.14h31.61v101.42c0,2.6.4,4.65,1.21,6.14.8,1.49,1.94,2.53,3.41,3.12,1.47.59,3.2.89,5.18.89,1.42,0,2.85-.13,4.3-.39,1.44-.26,2.52-.49,3.23-.67l4.97,23.3c-1.56.47-3.76,1.04-6.6,1.7-2.84.66-6.25,1.07-10.23,1.21-7.58.33-14.15-.63-19.71-2.88-5.56-2.25-9.86-5.75-12.89-10.51-3.03-4.76-4.52-10.74-4.47-17.93V18.89Z"/><path class="cls-1" d="m417.68,107.46v-62.43h31.6v109.09h-30.25v-19.96h-1.14c-2.46,6.49-6.56,11.67-12.29,15.55-5.73,3.88-12.69,5.82-20.88,5.82-7.34,0-13.79-1.67-19.35-5.01-5.56-3.34-9.91-8.07-13.03-14.2-3.12-6.13-4.69-13.39-4.69-21.77V45.03h31.53v63.71c.05,6.25,1.73,11.2,5.04,14.84,3.31,3.65,7.79,5.47,13.42,5.47,3.55,0,6.85-.83,9.91-2.49,3.05-1.66,5.52-4.08,7.39-7.28,1.87-3.2,2.78-7.14,2.73-11.83Z"/><path class="cls-1" d="m503.83,156.11c-6.96,0-13.15-1.21-18.57-3.62-5.42-2.42-9.7-6.01-12.82-10.8-3.12-4.78-4.69-10.77-4.69-17.97,0-6.06,1.09-11.15,3.27-15.27,2.18-4.12,5.17-7.46,8.98-10.01,3.81-2.56,8.17-4.49,13.07-5.79,4.9-1.3,10.07-2.21,15.52-2.73,6.25-.61,11.32-1.22,15.2-1.81,3.88-.59,6.69-1.49,8.42-2.7,1.73-1.21,2.59-2.95,2.59-5.22v-.43c0-4.21-1.36-7.48-4.08-9.8-2.72-2.32-6.52-3.48-11.4-3.48-5.21,0-9.35,1.13-12.43,3.37-3.08,2.25-5.09,5.17-6.04,8.77l-29.26-1.92c1.28-6.63,3.98-12.43,8.1-17.4,4.12-4.97,9.53-8.83,16.23-11.58,6.7-2.75,14.55-4.12,23.54-4.12,6.39,0,12.4.75,18.04,2.24,5.63,1.49,10.62,3.74,14.95,6.75,4.33,3.01,7.74,6.82,10.23,11.43,2.49,4.62,3.73,10.07,3.73,16.37v73.72h-29.9v-15.13h-.85c-1.8,3.46-4.18,6.48-7.14,9.06-2.96,2.58-6.49,4.57-10.58,5.97-4.1,1.4-8.8,2.1-14.1,2.1Zm9.3-21.45c4.21,0,7.97-.84,11.26-2.52,3.29-1.68,5.88-3.99,7.78-6.92,1.89-2.94,2.84-6.27,2.84-10.01v-11.22c-.95.57-2.2,1.09-3.76,1.56-1.56.47-3.3.91-5.22,1.31-1.92.4-3.85.76-5.79,1.07-1.94.31-3.74.58-5.4.82-3.46.52-6.46,1.34-9.02,2.45-2.56,1.11-4.53,2.6-5.93,4.47-1.4,1.87-2.09,4.15-2.09,6.85,0,3.98,1.44,7,4.33,9.06,2.89,2.06,6.56,3.09,11.01,3.09Z"/><path class="cls-1" d="m620.73,8.66v145.45h-31.53V8.66h31.53Z"/><path class="cls-1" d="m648.49,154.12V8.66h91.19v18.89h-69.25v44.32h64.49v18.82h-64.49v44.53h70.1v18.89h-92.04Z"/><path class="cls-1" d="m890.59,195.03V45.03h20.74v17.68h1.78c1.23-2.27,3.01-4.9,5.33-7.88,2.32-2.98,5.54-5.6,9.66-7.85,4.12-2.25,9.56-3.37,16.33-3.37,8.81,0,16.67,2.23,23.58,6.68,6.91,4.45,12.35,10.87,16.3,19.25,3.95,8.38,5.93,18.47,5.93,30.26s-1.97,21.89-5.9,30.29c-3.93,8.4-9.33,14.87-16.19,19.39-6.87,4.52-14.7,6.78-23.51,6.78-6.63,0-12.04-1.11-16.23-3.34-4.19-2.23-7.47-4.83-9.84-7.81-2.37-2.98-4.19-5.63-5.47-7.95h-1.28v57.88h-21.24Zm20.81-95.45c0,7.67,1.11,14.39,3.34,20.17,2.23,5.78,5.44,10.29,9.66,13.53,4.21,3.24,9.38,4.87,15.48,4.87s11.65-1.69,15.91-5.08c4.26-3.38,7.49-7.99,9.69-13.81,2.2-5.82,3.3-12.38,3.3-19.67s-1.08-13.66-3.23-19.39c-2.16-5.73-5.38-10.25-9.66-13.57-4.29-3.31-9.62-4.97-16.02-4.97s-11.35,1.59-15.59,4.76c-4.24,3.17-7.45,7.6-9.62,13.28-2.18,5.68-3.27,12.31-3.27,19.89Z"/><path class="cls-1" d="m1059.98,156.32c-10.23,0-19.15-2.34-26.78-7.03-7.62-4.69-13.54-11.24-17.76-19.67-4.21-8.43-6.32-18.28-6.32-29.55s2.11-21.21,6.32-29.69c4.21-8.48,10.13-15.06,17.76-19.74,7.62-4.69,16.55-7.03,26.78-7.03s19.15,2.34,26.78,7.03c7.62,4.69,13.54,11.27,17.76,19.74,4.21,8.48,6.32,18.37,6.32,29.69s-2.11,21.12-6.32,29.55c-4.21,8.43-10.13,14.99-17.76,19.67-7.62,4.69-16.55,7.03-26.78,7.03Zm.07-17.83c6.63,0,12.12-1.75,16.48-5.26,4.36-3.5,7.59-8.17,9.69-13.99s3.16-12.24,3.16-19.25-1.05-13.36-3.16-19.21c-2.11-5.85-5.34-10.55-9.69-14.1-4.36-3.55-9.85-5.33-16.48-5.33s-12.2,1.78-16.58,5.33c-4.38,3.55-7.62,8.25-9.73,14.1-2.11,5.85-3.16,12.25-3.16,19.21s1.05,13.42,3.16,19.25c2.11,5.82,5.35,10.49,9.73,13.99,4.38,3.5,9.91,5.26,16.58,5.26Z"/><path class="cls-1" d="m869.52,112.51v41.61h-41.61l-.06-12.26h20.41l-27.82-27.82,9.01-9.01,27.82,27.82-.06-20.35h12.32Z"/><path class="cls-1" d="m827.9,45.03h41.61v41.61l-12.26.06v-20.41l-27.82,27.82-9.01-9.01,27.82-27.82-20.35.06v-12.32Z"/><path class="cls-1" d="m760.43,86.64v-41.61h41.61l.06,12.26h-20.41l27.82,27.82-9.01,9.01-27.82-27.82.06,20.35h-12.32Z"/><path class="cls-1" d="m802.04,154.12h-41.61v-41.61l12.26-.06v20.41l27.82-27.82,9.01,9.01-27.82,27.82,20.35-.06v12.32Z"/></g></svg>