<?xml version="1.0" encoding="UTF-8"?><svg id="Layer_2" xmlns="http://www.w3.org/2000/svg" viewBox="0 0 397.41 399.74"><defs><style>.cls-1{fill:#1d1d1b;}</style></defs><g id="linkKopieren"><path class="cls-1" d="m357.41,109.15h-49.39v30h49.39c5.51,0,10,4.49,10,10v210.59c0,5.51-4.49,10-10,10h-210.59c-5.51,0-10-4.49-10-10v-51.72h-30v51.72c0,22.09,17.91,40,40,40h210.59c22.09,0,40-17.91,40-40v-210.59c0-22.09-17.91-40-40-40Z"/><path class="cls-1" d="m250.59,30c5.51,0,10,4.49,10,10v210.59c0,5.51-4.49,10-10,10H40c-5.51,0-10-4.49-10-10V40c0-5.51,4.49-10,10-10h210.59m0-30H40C17.91,0,0,17.91,0,40v210.59c0,22.09,17.91,40,40,40h210.59c22.09,0,40-17.91,40-40V40c0-22.09-17.91-40-40-40h0Z"/></g></svg>