<?xml version="1.0" encoding="UTF-8"?><svg id="Layer_2" xmlns="http://www.w3.org/2000/svg" viewBox="0 0 401.5 401.5"><g id="settings"><path d="m401.5,181.15v39.21c-.25.58-.62,1.14-.73,1.75-2.32,12.71-11.48,21.77-24.38,22.61-11.57.76-23.22.42-34.84.38-2.79,0-4.2.92-5.14,3.57-1.6,4.53-3.4,9.03-5.51,13.34-1.41,2.87-1.31,4.75,1.15,7.1,7.92,7.58,15.63,15.39,23.32,23.21,11.4,11.61,11.38,27.88-.04,39.53-7.49,7.65-15.08,15.21-22.7,22.72-12.09,11.92-28.36,11.88-40.39-.07-7.78-7.73-15.57-15.45-23.24-23.3-1.85-1.89-3.42-2.16-5.83-1.06-4.96,2.28-10.01,4.39-15.15,6.23-2.71.97-3.47,2.44-3.44,5.19.14,10.97.23,21.94,0,32.9-.24,11.51-5.86,19.74-16.2,24.73-1.84.89-3.79,1.54-5.69,2.3h-44.7c-.43-.26-.82-.61-1.28-.75-13.15-3.94-20.62-13.85-20.65-27.46-.02-10.58-.13-21.16.07-31.74.06-3.21-1.12-4.59-4.02-5.6-4.54-1.58-9-3.45-13.31-5.59-2.84-1.41-4.62-.94-6.79,1.31-7.44,7.71-15.07,15.22-22.68,22.76-12.21,12.12-28.41,12.09-40.69-.07-7.42-7.36-14.82-14.74-22.17-22.17-11.94-12.08-11.87-28.28.14-40.37,7.73-7.78,15.46-15.58,23.31-23.25,1.9-1.86,2.13-3.38.97-5.8-2.19-4.57-4.11-9.29-5.82-14.06-.94-2.62-2.28-3.65-5.11-3.61-10.32.15-20.64.15-30.96.03-13.93-.17-24.29-7.84-27.77-20.35-.41-1.48-.84-2.95-1.26-4.43,0-13.07,0-26.14,0-39.21.16-.2.4-.39.46-.62,4.23-17.08,13.29-24.18,30.89-24.18,9.4,0,18.81-.11,28.2.06,2.99.05,4.37-.98,5.33-3.8,1.63-4.79,3.6-9.5,5.78-14.07,1.29-2.71,1.32-4.5-1.05-6.76-7.83-7.49-15.41-15.24-23.05-22.93-11.96-12.05-11.97-28.28-.02-40.36,7.35-7.43,14.73-14.81,22.16-22.16,12.27-12.15,28.43-12.15,40.67,0,7.78,7.73,15.56,15.47,23.23,23.3,1.74,1.78,3.26,2.05,5.51,1.02,4.73-2.17,9.5-4.28,14.4-6.03,2.65-.95,3.65-2.23,3.62-5.07-.15-10.84-.09-21.68-.05-32.51.03-7.55,2.52-14.35,8.3-19.13C168.37,4.59,173.43,2.59,178.01,0c14.9,0,29.8,0,44.7,0,.43.26.83.61,1.29.75,13.14,3.93,20.62,13.85,20.64,27.47.02,10.19.13,20.38-.07,30.57-.06,3.11.85,4.64,3.88,5.67,4.92,1.67,9.74,3.71,14.42,5.98,2.73,1.32,4.42.84,6.46-1.26,7.38-7.59,14.93-15.01,22.42-22.48,12.74-12.71,28.7-12.69,41.53.06,7.13,7.09,14.24,14.22,21.33,21.35,12.37,12.44,12.42,28.56.11,40.96-7.64,7.7-15.26,15.42-23.05,22.96-2.06,2-2.19,3.59-1.01,6.09,2.22,4.7,4.27,9.52,5.93,14.44,1.03,3.05,2.64,3.9,5.71,3.85,10.06-.18,20.12-.17,30.18-.04,13.98.18,24.29,7.82,27.77,20.35.41,1.48.84,2.95,1.26,4.43ZM62.11,88.26c1.89,2.08,3.13,3.56,4.49,4.93,7.29,7.31,14.65,14.55,21.9,21.9,9.32,9.43,11.15,20.67,5.64,32.68-2.17,4.73-4.18,9.55-5.98,14.43-4.71,12.75-14.14,19.52-27.64,19.56-10.06.03-20.13.13-30.18-.06-3.48-.07-4.87.83-4.78,4.57.23,9.66.19,19.34.01,29-.06,3.36.89,4.6,4.42,4.53,10.19-.21,20.38-.09,30.58-.07,13.72.03,23.24,6.82,27.96,19.7,1.61,4.4,3.43,8.73,5.4,12.98,5.82,12.53,3.93,23.8-5.87,33.66-7.64,7.69-15.27,15.41-23.05,22.97-2.35,2.28-2.29,3.81.03,6.05,6.95,6.72,13.81,13.55,20.51,20.52,2.54,2.65,4.31,2.81,6.95.07,7.71-8,15.57-15.84,23.53-23.59,8.76-8.52,19.88-10.38,31.05-5.56,5.5,2.37,11.05,4.63,16.61,6.86,10.88,4.37,17.38,13.71,17.46,25.42.07,10.98.13,21.95-.03,32.93-.05,3.61,1.23,4.8,4.81,4.73,9.54-.19,19.08-.06,28.62-.07,4.82,0,4.99-.19,5-5.19.01-10.72-.05-21.43.03-32.15.08-11.9,6.72-21.27,17.83-25.55,5.1-1.97,10.22-3.92,15.18-6.21,13.11-6.03,23.93-4.2,34.24,6.07,7.59,7.56,15.21,15.1,22.7,22.76,2.1,2.14,3.61,2.34,5.79.09,6.83-7.03,13.71-14.01,20.81-20.76,2.79-2.65,2.58-4.35-.06-6.9-7.9-7.62-15.62-15.42-23.33-23.24-8.93-9.05-10.78-20.46-5.51-32.05,2.1-4.62,4.06-9.32,5.83-14.07,4.7-12.65,14.24-19.44,27.73-19.48,10.06-.03,20.13-.14,30.18.07,3.64.08,5.1-.83,5-4.76-.26-9.53-.21-19.08-.02-28.61.07-3.49-.88-4.82-4.61-4.74-10.45.24-20.91.17-31.36.06-12.36-.13-22.01-7.14-26.31-18.66-1.91-5.12-3.96-10.2-6.23-15.17-5.61-12.25-3.75-23.44,5.74-32.98,7.74-7.78,15.45-15.6,23.31-23.25,2.33-2.27,2.32-3.8-.02-6.06-6.95-6.72-13.81-13.55-20.49-20.53-2.55-2.66-4.31-2.82-6.95-.08-7.61,7.9-15.41,15.64-23.24,23.33-8.68,8.53-20,10.74-30.62,6.24-6.11-2.59-12.25-5.12-18.41-7.6-10.37-4.16-17.07-13.72-17.16-24.86-.09-10.98-.09-21.95,0-32.93.02-3.01-1.09-4.19-4.16-4.16-9.93.12-19.86.15-29.79-.02-3.5-.06-4.54,1.32-4.5,4.63.13,10.58.09,21.17.03,31.75-.07,12.5-6.77,21.94-18.47,26.34-4.38,1.65-8.77,3.34-13.02,5.31-13.9,6.46-24.63,4.63-35.55-6.28-7.4-7.39-14.78-14.78-22.17-22.18-1.42-1.42-2.77-3-4.88-.92-8.18,8.07-16.37,16.12-24.96,24.58Z"/><path d="m200.63,118.93c44.77-.11,81.49,36.28,81.63,80.9.14,45.23-36.2,81.82-81.37,81.95-44.74.13-81.52-36.33-81.64-80.91-.12-45.25,36.21-81.83,81.38-81.94Zm.09,137.58c31.09,0,56.43-25.28,56.37-56.22-.07-30.85-25.25-56.03-56.11-56.08-31.15-.06-56.44,24.99-56.56,56.02-.12,30.91,25.25,56.28,56.3,56.29Z"/></g></svg>